HIERARCHY
ROOT Hips
{
	OFFSET -3.958830 18.904000 13.208200
	CHANNELS 6 Xposition Yposition Zposition Zrotation Yrotation Xrotation 
	JOINT LHipJoint
	{
		OFFSET 0.000000 0.000000 0.000000
		CHANNELS 3 Zrotation Yrotation Xrotation
		JOINT LeftUpLeg
		{
			OFFSET 1.800000 -1.400000 0.085000
			CHANNELS 3 Zrotation Yrotation Xrotation
			JOINT LeftLeg
			{
				OFFSET 2.215000 -6.000000 0.000000
				CHANNELS 3 Zrotation Yrotation Xrotation
				JOINT LeftFoot
				{
					OFFSET 2.500000 -6.900000 0.000000
					CHANNELS 3 Zrotation Yrotation Xrotation
					JOINT LeftToeBase
					{
						OFFSET 0.200000 -0.500000 1.950000
						CHANNELS 3 Zrotation Yrotation Xrotation
						End Site
						{
							OFFSET 0.000000 0.000000 0.000000
						}
					}
				}
			}
		}
	}
	JOINT RHipJoint
	{
		OFFSET 0.000000 0.000000 0.000000
		CHANNELS 3 Zrotation Yrotation Xrotation
		JOINT RightUpLeg
		{
			OFFSET -1.800000 -1.400000 0.085000
			CHANNELS 3 Zrotation Yrotation Xrotation
			JOINT RightLeg
			{
				OFFSET -2.215000 -6.000000 0.000000
				CHANNELS 3 Zrotation Yrotation Xrotation
				JOINT RightFoot
				{
					OFFSET -2.500000 -6.900000 0.000000
					CHANNELS 3 Zrotation Yrotation Xrotation
					JOINT RightToeBase
					{
						OFFSET -0.200000 -0.500000 1.950000
						CHANNELS 3 Zrotation Yrotation Xrotation
						End Site
						{
							OFFSET 0.000000 0.000000 0.000000
						}
					}
				}
			}
		}
	}
	JOINT LowerBack
	{
		OFFSET 0.000000 0.000000 0.000000
		CHANNELS 3 Zrotation Yrotation Xrotation
		JOINT Spine
		{
			OFFSET -0.087000 1.940000 -0.288900
			CHANNELS 3 Zrotation Yrotation Xrotation
			JOINT Spine1
			{
				OFFSET 0.000000 1.950000 0.060000
				CHANNELS 3 Zrotation Yrotation Xrotation
				JOINT Neck
				{
					OFFSET 0.000000 0.000000 0.000000
					CHANNELS 3 Zrotation Yrotation Xrotation
					JOINT Neck1
					{
						OFFSET 0.000000 1.600000 0.340000
						CHANNELS 3 Zrotation Yrotation Xrotation
						JOINT Head
						{
							OFFSET 0.000000 1.667000 -0.240000
							CHANNELS 3 Zrotation Yrotation Xrotation
							End Site
							{
								OFFSET 0.000000 0.000000 0.000000
							}
						}
					}
				}
				JOINT LeftShoulder
				{
					OFFSET 0.000000 0.000000 0.000000
					CHANNELS 3 Zrotation Yrotation Xrotation
					JOINT LeftArm
					{
						OFFSET 2.700000 1.550000 -0.730000
						CHANNELS 3 Zrotation Yrotation Xrotation
						JOINT LeftForeArm
						{
							OFFSET 5.450000 0.000000 0.000000
							CHANNELS 3 Zrotation Yrotation Xrotation
							JOINT LeftHand
							{
								OFFSET 3.450000 0.000000 0.000000
								CHANNELS 3 Zrotation Yrotation Xrotation
								JOINT LeftHandIndex1
								{
									OFFSET 0.750000 0.000000 0.000000
									CHANNELS 3 Zrotation Yrotation Xrotation
									End Site
									{
										OFFSET 0.000000 0.000000 0.000000
									}
								}
							}
						}
					}
				}
				JOINT RightShoulder
				{
					OFFSET 0.000000 0.000000 0.000000
					CHANNELS 3 Zrotation Yrotation Xrotation
					JOINT RightArm
					{
						OFFSET -2.700000 1.550000 -0.730000
						CHANNELS 3 Zrotation Yrotation Xrotation
						JOINT RightForeArm
						{
							OFFSET -5.450000 0.000000 0.000000
							CHANNELS 3 Zrotation Yrotation Xrotation
							JOINT RightHand
							{
								OFFSET -3.450000 0.000000 0.000000
								CHANNELS 3 Zrotation Yrotation Xrotation
								JOINT RightHandIndex1
								{
									OFFSET -0.750000 0.000000 0.000000
									CHANNELS 3 Zrotation Yrotation Xrotation
									End Site
									{
										OFFSET 0.000000 0.000000 0.000000
									}
								}
							}
						}
					}
				}
			}
		}
	}
}
MOTION
Frames: 6
Frame Time: 0.016667
0.404370 16.277190 -0.771260 -0.747785 13.260550 6.824930 -15.350679 12.893385 2.712380 -0.110533 -2.281927 -16.576641 -7.628398 5.261922 11.513727 -0.459141 3.913147 3.540552 -0.115590 -0.379490 -0.274410 18.283699 -9.091035 4.117526 -5.200042 4.862710 -39.750098 7.804001 -1.174873 -5.014461 0.387706 -1.913032 3.797299 -0.074330 0.873420 0.236230 -3.484799 -2.915356 -7.773323 8.822101 -6.426358 7.703103 -6.677704 -5.470318 -0.628168 4.055382 -3.794120 -6.896639 -6.740762 3.456263 22.199216 -2.296670 0.704550 4.439100 -19.538210 -0.623996 -1.027583 -54.353005 -10.847824 -1.330136 10.468963 -19.504970 -3.021658 -4.312852 2.972654 0.034970 0.564560 -0.519230 0.229560 11.508127 2.114484 5.087304 53.337570 -1.803209 -9.069906 32.630593 44.711784 8.795168 2.010853 -1.867544 -0.344580 0.241630 0.269470 0.037260 
0.392480 16.285300 -0.769790 -1.339722 13.196225 6.616967 -15.333387 12.897407 2.708969 0.642603 -2.346033 -16.728053 -7.847588 5.366507 11.729334 -0.450422 3.956288 3.514581 -0.128590 -0.391060 -0.268560 18.290567 -9.114423 4.135171 -5.306851 4.934329 -40.007995 7.552425 -1.210694 -4.689152 0.392960 -1.881406 3.805723 -0.086470 0.860970 0.237220 -3.522180 -2.866366 -7.806940 9.362398 -6.403614 8.025097 -6.727631 -5.402358 -0.764610 4.201982 -3.542448 -7.060037 -6.340246 3.335218 22.524545 -2.619320 1.059980 4.471940 -18.648192 -0.620834 -0.927717 -54.734508 -11.038426 -1.217240 9.904965 -19.774453 -2.951540 -4.316424 2.962681 0.037740 0.564310 -0.511480 0.214200 10.289942 2.025975 5.157994 55.446379 -1.424385 -9.324848 31.271478 44.281845 8.139782 2.010214 -1.851268 -0.341860 0.233530 0.274310 0.029420 
0.374400 16.306030 -0.769140 -2.201049 13.246436 6.102415 -15.304809 12.907932 2.674795 1.568228 -2.399313 -16.836538 -7.724842 5.417037 12.106130 -0.478136 4.000068 3.490330 -0.105810 -0.365910 -0.244710 18.315413 -9.149374 4.120407 -5.726833 4.902341 -40.328587 6.972719 -1.294764 -3.894151 0.390792 -1.840757 3.814678 -0.064790 0.848500 0.230490 -3.603543 -2.821668 -7.775943 10.267434 -6.422090 8.139495 -6.520847 -5.298578 0.221932 3.817721 -3.422392 -7.288073 -6.221381 3.062001 22.725956 -2.656540 0.894750 3.754960 -17.739279 -1.623605 -0.458172 -54.904685 -11.689747 -1.127532 9.680878 -20.193951 -3.054231 -4.300470 2.950955 0.055310 0.556390 -0.499380 0.213530 10.104522 2.784204 5.212266 55.240118 -1.104904 -9.766299 29.209807 44.086987 7.262486 1.991247 -1.822846 -0.348800 0.252280 0.267110 0.018200 
0.345320 16.327660 -0.754890 -2.986923 13.547614 5.934365 -15.284210 12.922019 2.660584 2.450077 -2.572552 -17.389389 -7.449449 5.460422 12.779081 -0.510766 4.035148 3.464271 -0.097700 -0.351040 -0.241400 18.331268 -9.216078 4.086253 -6.326305 4.819088 -41.250980 6.000178 -1.545041 -1.696555 0.408951 -1.776341 3.829964 -0.048340 0.853210 0.231620 -3.661466 -2.748642 -7.717708 10.775401 -6.485413 8.078152 -6.131917 -5.364550 0.402190 3.416618 -3.124472 -7.224025 -5.687695 2.961212 22.453136 -2.618130 0.973230 3.263890 -15.982994 -1.164170 -0.257098 -55.716982 -11.931167 -1.095054 8.612569 -21.956283 -3.080725 -4.302437 2.946416 0.056980 0.565910 -0.501120 0.210110 9.138393 2.025665 4.774038 56.414757 -0.443752 -9.670669 26.429871 42.548352 6.054421 1.972627 -1.790020 -0.353610 0.264790 0.274030 0.012300 
0.311600 16.350150 -0.732920 -3.544958 14.105340 5.834358 -15.285139 12.977044 2.651710 2.914803 -2.779506 -18.058301 -6.502324 5.365340 13.736329 -0.542786 4.026825 3.462256 -0.107030 -0.367900 -0.236930 18.320065 -9.313483 4.025648 -7.263670 4.520741 -41.940008 4.942168 -1.877055 1.038454 0.424201 -1.771821 3.818220 -0.051550 0.865150 0.246190 -3.654902 -2.716900 -7.643981 10.511000 -6.455491 7.877585 -5.158874 -5.454524 0.572961 2.992184 -2.556301 -7.249108 -4.716820 2.765808 22.248060 -2.936970 1.370300 3.440340 -14.424045 -0.957046 0.184229 -56.414466 -11.641571 -1.481260 7.355717 -24.797975 -3.117967 -4.304322 2.962020 0.053470 0.587640 -0.508610 0.203660 8.484949 1.395953 4.320473 57.639723 0.197070 -9.650692 22.596181 40.410179 4.471999 1.967236 -1.750597 -0.360320 0.259500 0.282990 0.002990 
0.273140 16.379040 -0.711860 -4.315277 14.405820 5.487050 -15.275256 13.053273 2.651892 3.690654 -2.998432 -18.795781 -5.540546 5.320552 14.997907 -0.580079 4.040971 3.439423 -0.113840 -0.376340 -0.229240 18.308916 -9.433361 3.959402 -8.083721 4.253772 -42.137005 4.239575 -2.227168 3.848681 0.420774 -1.788287 3.799246 -0.052750 0.856630 0.235230 -3.667430 -2.694419 -7.601823 10.389235 -6.397485 8.100412 -3.972074 -5.473238 0.376873 2.422324 -2.103711 -7.208889 -4.044803 2.765922 22.704322 -2.768790 1.667080 3.020440 -12.679400 -0.407486 0.570456 -57.358818 -11.343076 -1.777080 5.344983 -27.703792 -2.945790 -4.274838 2.956461 0.080970 0.577410 -0.498980 0.191520 7.925619 0.532596 3.679535 58.780622 1.120778 -9.334688 18.537235 37.506332 2.967823 1.981194 -1.663897 -0.377290 0.275260 0.292910 -0.012220 
